<svg width="55" height="55" viewBox="0 0 55 55" fill="none" xmlns="http://www.w3.org/2000/svg">
<rect width="55" height="55" fill="#1E1E1E"/>
<rect width="1300" height="790" transform="translate(-238 -516)" fill="white"/>
<rect width="55" height="55" rx="5" fill="#D9D9D9"/>
<path d="M22.2689 16.9399C22.7673 17.3918 22.8076 18.1586 22.3595 18.6614L18.7345 22.7239C18.513 22.9727 18.2009 23.1199 17.8686 23.125C17.5363 23.1301 17.2191 23.0032 16.9825 22.7696L14.9635 20.7383C14.4903 20.261 14.4903 19.4891 14.9635 19.0168C15.4368 18.5446 16.2021 18.5395 16.6703 19.0168L17.783 20.1391L20.5571 17.0313C21.0052 16.5285 21.7654 16.4879 22.2639 16.9399H22.2689ZM22.2689 25.0649C22.7673 25.5168 22.8076 26.2836 22.3595 26.7864L18.7345 30.8489C18.513 31.0977 18.2009 31.2449 17.8686 31.25C17.5363 31.2551 17.2191 31.1281 16.9825 30.8946L14.9635 28.8633C14.4903 28.386 14.4903 27.6141 14.9635 27.1418C15.4368 26.6696 16.2021 26.6645 16.6703 27.1418L17.783 28.2641L20.5571 25.1563C21.0052 24.6535 21.7654 24.6129 22.2639 25.0649H22.2689ZM25.8889 19.875C25.8889 18.9762 26.6088 18.25 27.5 18.25H38.7778C39.6689 18.25 40.3889 18.9762 40.3889 19.875C40.3889 20.7739 39.6689 21.5 38.7778 21.5H27.5C26.6088 21.5 25.8889 20.7739 25.8889 19.875ZM25.8889 28C25.8889 27.1012 26.6088 26.375 27.5 26.375H38.7778C39.6689 26.375 40.3889 27.1012 40.3889 28C40.3889 28.8989 39.6689 29.625 38.7778 29.625H27.5C26.6088 29.625 25.8889 28.8989 25.8889 28ZM22.6667 36.125C22.6667 35.2262 23.3866 34.5 24.2778 34.5H38.7778C39.6689 34.5 40.3889 35.2262 40.3889 36.125C40.3889 37.0239 39.6689 37.75 38.7778 37.75H24.2778C23.3866 37.75 22.6667 37.0239 22.6667 36.125ZM17.0278 38.5625C15.6936 38.5625 14.6111 37.4707 14.6111 36.125C14.6111 34.7793 15.6936 33.6875 17.0278 33.6875C18.362 33.6875 19.4444 34.7793 19.4444 36.125C19.4444 37.4707 18.362 38.5625 17.0278 38.5625Z" fill="#959595"/>
</svg>
