<svg width="2811" height="538" viewBox="0 0 2811 538" fill="none" xmlns="http://www.w3.org/2000/svg">
<path d="M626.6 410V126H729.8C760.733 126 786.6 132.4 807.4 145.2C828.2 157.733 843.8 174.8 854.2 196.4C864.6 217.733 869.8 241.467 869.8 267.6C869.8 296.4 864.067 321.467 852.6 342.8C841.133 364.133 824.867 380.667 803.8 392.4C783 404.133 758.333 410 729.8 410H626.6ZM814.2 267.6C814.2 249.2 810.867 233.067 804.2 219.2C797.533 205.067 787.933 194.133 775.4 186.4C762.867 178.4 747.667 174.4 729.8 174.4H681.8V361.6H729.8C747.933 361.6 763.267 357.6 775.8 349.6C788.333 341.333 797.8 330.133 804.2 316C810.867 301.6 814.2 285.467 814.2 267.6ZM1110.13 361.6V410H912.928V126H1106.53V174.4H968.128V242.8H1087.73V287.6H968.128V361.6H1110.13ZM1322.36 200.4C1320.5 198.533 1317.03 196 1311.96 192.8C1307.16 189.6 1301.16 186.533 1293.96 183.6C1287.03 180.667 1279.43 178.133 1271.16 176C1262.9 173.6 1254.5 172.4 1245.96 172.4C1231.03 172.4 1219.7 175.2 1211.96 180.8C1204.5 186.4 1200.76 194.267 1200.76 204.4C1200.76 212.133 1203.16 218.267 1207.96 222.8C1212.76 227.333 1219.96 231.2 1229.56 234.4C1239.16 237.6 1251.16 241.067 1265.56 244.8C1284.23 249.333 1300.36 254.933 1313.96 261.6C1327.83 268 1338.36 276.533 1345.56 287.2C1353.03 297.6 1356.76 311.467 1356.76 328.8C1356.76 344 1353.96 357.067 1348.36 368C1342.76 378.667 1335.03 387.333 1325.16 394C1315.3 400.667 1304.1 405.6 1291.56 408.8C1279.03 411.733 1265.7 413.2 1251.56 413.2C1237.43 413.2 1223.3 411.733 1209.16 408.8C1195.03 405.867 1181.43 401.733 1168.36 396.4C1155.3 390.8 1143.3 384.133 1132.36 376.4L1156.76 328.8C1159.16 331.2 1163.43 334.4 1169.56 338.4C1175.7 342.133 1183.16 346 1191.96 350C1200.76 353.733 1210.36 356.933 1220.76 359.6C1231.16 362.267 1241.7 363.6 1252.36 363.6C1267.3 363.6 1278.63 361.067 1286.36 356C1294.1 350.933 1297.96 343.733 1297.96 334.4C1297.96 325.867 1294.9 319.2 1288.76 314.4C1282.63 309.6 1274.1 305.467 1263.16 302C1252.23 298.267 1239.3 294.267 1224.36 290C1206.5 284.933 1191.56 279.333 1179.56 273.2C1167.56 266.8 1158.63 258.8 1152.76 249.2C1146.9 239.6 1143.96 227.6 1143.96 213.2C1143.96 193.733 1148.5 177.467 1157.56 164.4C1166.9 151.067 1179.43 141.067 1195.16 134.4C1210.9 127.467 1228.36 124 1247.56 124C1260.9 124 1273.43 125.467 1285.16 128.4C1297.16 131.333 1308.36 135.2 1318.76 140C1329.16 144.8 1338.5 150 1346.76 155.6L1322.36 200.4ZM1610.88 174.4H1520.08V410H1465.28V174.4H1374.48V126H1610.88V174.4ZM1646.13 410V126H1701.33V410H1646.13ZM1760.58 410V126H1815.78V361.6H1960.58V410H1760.58ZM1994.18 410V126H2049.38V410H1994.18ZM2108.63 410V126H2234.23C2247.3 126 2259.3 128.667 2270.23 134C2281.43 139.333 2291.03 146.533 2299.03 155.6C2307.3 164.667 2313.56 174.8 2317.83 186C2322.36 197.2 2324.63 208.667 2324.63 220.4C2324.63 232.4 2322.5 244 2318.23 255.2C2314.23 266.133 2308.36 275.733 2300.63 284C2292.9 292.267 2283.83 298.667 2273.43 303.2L2338.23 410H2277.43L2219.03 314.8H2163.83V410H2108.63ZM2163.83 266.4H2233.03C2239.96 266.4 2246.1 264.4 2251.43 260.4C2256.76 256.133 2261.03 250.533 2264.23 243.6C2267.43 236.667 2269.03 228.933 2269.03 220.4C2269.03 211.333 2267.16 203.467 2263.43 196.8C2259.7 189.867 2254.9 184.4 2249.03 180.4C2243.43 176.4 2237.3 174.4 2230.63 174.4H2163.83V266.4ZM2451.85 126H2507.85L2612.25 410H2555.45L2529.05 339.2H2429.85L2403.85 410H2347.05L2451.85 126ZM2519.05 300.4L2479.85 183.2L2439.05 300.4H2519.05ZM2629 352C2632.46 354.4 2638.6 357.333 2647.4 360.8C2656.2 364 2666.6 365.6 2678.6 365.6C2689 365.6 2697.53 363.867 2704.2 360.4C2710.86 356.667 2715.93 351.2 2719.4 344C2723.13 336.8 2725.53 327.467 2726.6 316C2727.93 304.533 2728.6 290.8 2728.6 274.8V126H2783.8V270.4C2783.8 291.733 2782.6 311.2 2780.2 328.8C2777.8 346.4 2773.13 361.6 2766.2 374.4C2759.26 387.2 2748.73 397.067 2734.6 404C2720.73 410.933 2702.2 414.4 2679 414.4C2666.2 414.4 2654.73 412.933 2644.6 410C2634.46 407.067 2625.13 402.667 2616.6 396.8L2629 352Z" fill="#AB9969"/>
<path d="M211 14.1161V523.756C211 524.295 211 524.787 211 525.279C210.433 533.079 205.664 538.818 200.352 537.904C180.638 534.578 160.971 530.455 143.027 526.052C138.305 524.927 135 519.024 135 511.997V25.875C135 18.8478 138.4 12.9917 143.027 11.8205C161.774 7.13569 181.086 3.24727 200.352 0.10843C205.711 -0.875386 210.433 4.95724 211 12.6638C210.976 13.1089 211 13.6242 211 14.1161Z" fill="#CAB681"/>
<path d="M74.982 59.5621V477.31C75.006 477.731 75.006 478.153 74.982 478.575C74.4426 484.968 69.7284 489.652 64.4982 488.926C45.0315 486.186 25.635 482.813 7.92728 479.207C3.2365 478.27 0 473.399 0 467.685V69.281C0 63.5902 3.35377 58.7191 7.92728 57.7823C26.4089 54.0118 45.4536 50.7566 64.4982 48.0868C69.7753 47.2906 74.4426 52.0681 74.982 58.3912C75.0022 58.7813 75.0022 59.1721 74.982 59.5621V59.5621Z" fill="#CAB681"/>
<path d="M347 25.9359V512.011C347 519.037 343.599 524.938 338.97 526.062C320.549 530.582 300.805 534.704 281.651 537.913C276.314 538.779 271.543 533.088 271 525.29C271 524.798 271 524.306 271 523.767V14.1792C271 13.6874 271 13.1956 271 12.6569C271.543 4.95184 276.29 -0.85623 281.651 0.103976C300.947 3.33589 320.218 7.31722 338.97 11.8138C343.599 13.1721 347 19.0271 347 25.9359Z" fill="#AB9969"/>
<path d="M482 69.3481V467.692C482 473.405 478.646 478.276 474.073 479.213C455.898 482.912 436.409 486.237 417.53 488.93C412.253 489.632 407.563 484.973 407 478.58C407 478.159 407 477.761 407 477.316V59.6307C407 59.2326 407 58.8111 407 58.3896C407.563 52.0675 412.206 47.2907 417.53 48.0868C436.55 50.7328 455.569 54.0109 474.073 57.7808C478.646 58.7877 482 63.6581 482 69.3481Z" fill="#AB9969"/>
</svg>
