<svg width="609" height="1040" viewBox="0 0 609 1040" fill="none" xmlns="http://www.w3.org/2000/svg">
<rect width="609" height="1040" fill="#A08744"/>
<path opacity="0.1" d="M-193.96 727.291C-197.804 726.009 -201.649 726.009 -205.494 726.009C-229.844 726.009 -252.912 743.95 -258.039 768.297C-260.602 782.393 -258.039 796.489 -250.349 808.022C-242.66 819.555 -231.126 828.525 -217.028 831.088C-213.183 832.37 -209.339 832.37 -205.494 832.37C-181.144 832.37 -158.075 814.429 -152.949 790.082C-150.386 777.267 -152.949 763.171 -159.357 751.638L-86.3064 669.626C-81.18 672.189 -76.0537 674.752 -69.6458 676.033C-65.801 677.314 -61.9562 677.314 -58.1115 677.314C-37.6061 677.314 -19.6639 665.781 -10.6928 647.841L73.8918 665.781C75.1734 690.129 91.834 710.632 116.184 715.758C120.029 717.039 123.874 717.039 127.718 717.039C129 717.039 131.563 717.039 132.845 717.039L164.884 823.399C154.632 831.088 148.224 841.34 145.661 854.154C143.097 868.25 145.661 881.064 152.069 892.597L80.2997 974.61C75.1734 970.766 70.0471 969.484 63.6391 966.921C59.7944 965.64 55.9496 965.64 52.1049 965.64C27.7548 965.64 4.68622 983.58 -0.440125 1007.93C-3.0033 1022.02 -0.440125 1036.12 7.24939 1047.65C14.9389 1059.19 26.4731 1068.16 40.5706 1070.72C44.4153 1072 48.2601 1072 52.1049 1072C76.455 1072 99.5235 1054.06 104.65 1029.71C107.213 1016.9 104.65 1002.8 98.2419 991.269L171.292 909.256C176.419 911.819 181.545 914.382 187.953 915.664C191.798 916.945 195.642 916.945 199.487 916.945C219.993 916.945 237.935 905.412 246.906 887.472L331.49 905.412C332.772 929.759 349.433 950.263 373.783 955.388C377.628 956.67 381.472 956.67 385.317 956.67C409.667 956.67 432.736 938.73 437.862 914.382C444.27 886.19 426.328 856.717 396.851 850.31C393.007 849.028 389.162 849.028 385.317 849.028C364.812 849.028 346.87 860.561 337.898 878.502L253.314 860.561C253.314 850.31 250.751 841.34 245.624 833.651C237.935 822.118 226.4 813.148 212.303 810.585C208.458 809.303 204.614 809.303 200.769 809.303C198.206 809.303 194.361 809.303 191.798 810.585L159.758 706.788C171.292 699.099 178.982 687.566 182.827 673.47C185.39 660.656 182.827 646.56 176.419 635.027L249.469 553.014C254.595 555.577 259.722 558.14 266.13 559.421C269.974 560.703 273.819 560.703 277.664 560.703C298.169 560.703 316.111 549.17 325.083 531.23L409.667 549.17C410.949 573.517 427.609 594.02 451.96 599.146C455.804 600.428 459.649 600.428 463.494 600.428C487.844 600.428 510.912 582.487 516.039 558.14C518.602 544.044 516.039 529.948 508.349 518.415C500.66 506.882 489.125 497.912 475.028 495.349C471.183 494.068 467.339 494.068 463.494 494.068C442.988 494.068 425.046 505.601 416.075 523.541L331.49 505.601C330.209 481.253 313.548 460.75 289.198 455.624C285.353 454.343 281.509 454.343 277.664 454.343C275.101 454.343 271.256 454.343 268.693 455.624L236.653 351.827C248.187 344.138 257.159 332.605 259.722 318.509C262.285 304.414 259.722 290.318 252.032 278.785C241.78 269.814 228.964 260.844 216.148 258.281C212.303 257 208.458 257 204.614 257C180.263 257 157.195 274.94 152.069 299.288C145.661 327.48 163.603 356.953 193.079 363.36C196.924 364.642 200.769 364.642 204.614 364.642C205.895 364.642 207.177 364.642 209.74 364.642L241.78 471.002C231.527 478.69 225.119 488.942 222.556 501.756C219.993 514.571 222.556 528.667 228.964 540.2L157.195 622.212C152.069 618.368 146.942 615.805 140.534 614.524C136.69 613.242 132.845 613.242 129 613.242C108.495 613.242 90.5524 624.775 81.5813 642.715L-3.00331 624.775C-4.2849 600.428 -20.9455 579.925 -45.2956 574.799C-49.1404 573.517 -52.9852 573.517 -56.8299 573.517C-59.3931 573.517 -63.2378 573.517 -65.801 574.799L-97.8406 471.002C-86.3064 463.313 -77.3353 451.78 -74.7721 437.684C-68.3642 409.492 -86.3064 380.019 -115.783 373.612C-119.628 372.33 -123.472 372.33 -127.317 372.33C-151.667 372.33 -174.736 390.27 -179.862 414.618C-182.425 428.714 -179.862 442.81 -172.173 454.343C-164.483 465.876 -152.949 474.846 -138.851 477.409C-135.007 478.69 -131.162 478.69 -127.317 478.69C-126.036 478.69 -124.754 478.69 -122.191 478.69L-90.1511 585.05C-100.404 592.739 -106.812 602.991 -109.375 615.805C-111.938 628.62 -109.375 642.715 -102.967 654.248L-174.736 736.261C-181.144 731.135 -187.552 728.572 -193.96 727.291ZM79.0182 1027.15C76.455 1041.25 61.076 1051.5 45.697 1048.93C38.0074 1047.65 31.5995 1042.53 27.7547 1037.4C23.91 1030.99 22.6284 1023.31 23.91 1016.9C26.4731 1004.08 38.0074 995.113 50.8233 995.113C53.3864 995.113 54.668 995.113 57.2312 995.113C64.9207 996.395 70.0471 1001.52 75.1734 1006.65C79.0182 1011.77 80.2997 1019.46 79.0182 1027.15ZM357.122 900.286C359.685 887.472 371.22 878.502 384.035 878.502C386.599 878.502 387.88 878.502 390.443 878.502C405.822 882.346 414.794 896.442 412.23 911.819C409.667 925.915 394.288 936.167 378.909 933.604C363.53 931.041 353.277 915.664 357.122 900.286ZM204.614 840.058C212.303 841.34 217.429 846.465 222.556 851.591C226.4 857.998 227.682 865.687 226.4 872.094C223.837 886.19 208.458 896.442 193.079 893.879C177.7 890.035 168.729 875.939 171.292 860.561C173.855 847.747 185.39 838.777 198.206 838.777C199.487 838.777 202.05 838.777 204.614 840.058ZM198.206 337.731C182.827 333.887 173.855 319.791 177.7 304.414C180.263 291.599 191.798 282.629 204.614 282.629C207.177 282.629 208.458 282.629 211.021 282.629C218.711 283.91 223.837 289.036 228.964 294.162C232.808 300.569 234.09 308.258 232.808 314.665C227.682 331.324 213.585 340.294 198.206 337.731ZM-133.725 451.78C-141.415 450.498 -146.541 445.373 -151.667 440.247C-155.512 433.84 -156.794 426.151 -155.512 418.462C-152.949 405.648 -141.415 396.678 -128.599 396.678C-126.036 396.678 -124.754 396.678 -122.191 396.678C-106.812 400.522 -97.8406 414.618 -100.404 429.995C-104.249 445.373 -118.346 454.343 -133.725 451.78ZM-177.299 784.956C-179.862 799.052 -195.241 809.303 -210.62 806.741C-218.31 805.459 -223.436 800.333 -228.562 795.208C-232.407 788.8 -233.689 781.112 -232.407 774.704C-229.844 761.89 -218.31 752.92 -205.494 752.92C-202.931 752.92 -201.649 752.92 -199.086 752.92C-191.396 754.201 -186.27 759.327 -181.144 764.453C-177.299 770.86 -176.017 778.549 -177.299 784.956ZM432.736 545.325C435.299 532.511 446.833 523.541 459.649 523.541C462.212 523.541 463.494 523.541 466.057 523.541C473.746 524.822 478.873 529.948 483.999 535.074C487.844 541.481 489.125 549.17 487.844 555.577C485.281 569.673 469.902 579.925 454.523 577.362C439.144 574.799 428.891 560.703 432.736 545.325ZM280.227 483.816C295.606 487.66 304.577 501.756 302.014 517.134C299.451 531.23 284.072 541.481 268.693 538.918C261.003 537.637 255.877 532.511 250.751 527.385C246.906 520.978 245.624 513.289 246.906 506.882C249.469 494.068 261.003 485.097 273.819 485.097C276.382 483.816 277.664 483.816 280.227 483.816ZM100.805 659.374C103.368 646.56 114.903 637.59 127.718 637.59C130.282 637.59 131.563 637.59 134.126 637.59C149.505 641.434 158.476 655.53 155.913 670.907C153.35 685.003 137.971 695.255 122.592 692.692C107.213 688.847 96.9604 674.752 100.805 659.374ZM-51.7036 597.865C-36.3245 601.709 -27.3534 615.805 -29.9166 631.182C-32.4798 645.278 -47.8588 655.53 -63.2378 652.967C-70.9274 651.686 -76.0537 646.56 -81.18 641.434C-85.0248 635.027 -86.3064 627.338 -85.0248 620.931C-82.4616 608.116 -70.9273 599.146 -58.1115 599.146C-56.8299 597.865 -54.2667 597.865 -51.7036 597.865Z" fill="#483A14"/>
</svg>
