<svg width="1764" height="1764" viewBox="0 0 1764 1764" fill="none" xmlns="http://www.w3.org/2000/svg">
<rect width="1764" height="1764" rx="882" fill="white"/>
<g clip-path="url(#clip0_206_7)">
<path d="M1478.83 445.495L1317.48 284.148C1302.62 269.292 1278.55 269.292 1263.69 284.148L1209.9 337.915C1195.04 352.78 1195.04 376.849 1209.9 391.705L1027.75 573.851C916.915 526.906 784.353 548.299 694.028 638.623L317.519 1015.13C258.095 1074.56 258.095 1170.85 317.519 1230.27L532.657 1445.43C592.081 1504.86 688.371 1504.86 747.795 1445.43L1124.3 1068.92C1214.63 978.598 1236.02 846.06 1189.08 735.198L1371.22 553.053C1386.08 567.908 1410.44 567.908 1425.3 553.053L1479.09 499.262C1493.57 484.43 1493.57 460.351 1478.83 445.495ZM699.188 1278.93L484.05 1063.79L774.038 773.8L989.176 988.962L699.188 1278.93Z" fill="#483A14"/>
</g>
<defs>
<clipPath id="clip0_206_7">
<rect width="1217" height="1217" fill="white" transform="translate(273 273)"/>
</clipPath>
</defs>
</svg>
